<svg width="101" height="95" viewBox="0 0 101 95" fill="none" xmlns="http://www.w3.org/2000/svg">
    <g clip-path="url(#clip0_2_1302)">
        <path d="M20.6127 14.0076L51.5158 5.72719C62.7773 2.70967 70.935 7.63229 74.0716 19.3381L82.6705 51.4298C85.8071 63.1357 81.2036 71.4776 69.9421 74.4951L39.039 82.7756C27.7775 85.7931 19.6492 80.8626 16.5126 69.1568L7.91368 37.0651C4.77711 25.3592 9.35114 17.0252 20.6127 14.0076Z" fill="url(#paint0_linear_2_1302)"/>
        <g filter="url(#filter0_f_2_1302)">
            <path d="M29.3027 25.8578L50.2911 20.234C57.9396 18.1846 63.3847 21.1721 65.3467 28.4943L70.7256 48.5684C72.6875 55.8907 69.4657 61.2005 61.8172 63.2499L40.8288 68.8737C33.1803 70.9231 27.7551 67.9303 25.7931 60.608L20.4143 40.5339C18.4523 33.2117 21.6542 27.9072 29.3027 25.8578Z" fill="#0062FF" fill-opacity="0.5"/>
        </g>
        <mask id="mask0_2_1302" style="mask-type:alpha" maskUnits="userSpaceOnUse" x="25" y="20" width="76" height="76">
            <path d="M100.441 20.1562H25.4411V95.1562H100.441V20.1562Z" fill="white"/>
            <path d="M78.6703 21.1562H47.0924C34.7453 21.1562 26.4411 29.8247 26.4411 42.7181V72.4749C26.4411 85.3319 34.7453 94.0004 47.0924 94.0004H78.6703C91.0174 94.0004 99.2852 85.3319 99.2852 72.4749V42.7181C99.2852 29.8247 91.0174 21.1562 78.6703 21.1562Z" fill="black"/>
        </mask>
        <g mask="url(#mask0_2_1302)">
            <path d="M78.6703 21.1562H47.0924C34.7453 21.1562 26.4411 29.8247 26.4411 42.7181V72.4749C26.4411 85.3319 34.7453 94.0004 47.0924 94.0004H78.6703C91.0174 94.0004 99.2852 85.3319 99.2852 72.4749V42.7181C99.2852 29.8247 91.0174 21.1562 78.6703 21.1562Z" fill="#3EA0FE"/>
            <path d="M78.6703 22.1562C79.2226 22.1562 79.6703 21.7085 79.6703 21.1562C79.6703 20.604 79.2226 20.1562 78.6703 20.1562V22.1562ZM78.6703 20.1562C78.118 20.1562 77.6703 20.604 77.6703 21.1562C77.6703 21.7085 78.118 22.1562 78.6703 22.1562V20.1562ZM78.6703 20.1562H47.0924V22.1562H78.6703V20.1562ZM47.0924 20.1562C40.6761 20.1562 35.2422 22.4141 31.4144 26.4104C27.5902 30.403 25.4411 36.0546 25.4411 42.7181H27.4411C27.4411 36.4882 29.4441 31.3589 32.8587 27.7939C36.2698 24.2326 41.1616 22.1562 47.0924 22.1562V20.1562ZM25.4411 42.7181V72.4749H27.4411V42.7181H25.4411ZM25.4411 72.4749C25.4411 79.1209 27.5906 84.7635 31.4148 88.7512C35.2425 92.7426 40.6761 95.0004 47.0924 95.0004V93.0004C41.1616 93.0004 36.2695 90.924 32.8583 87.3669C29.4436 83.8061 27.4411 78.686 27.4411 72.4749H25.4411ZM47.0924 95.0004H78.6703V93.0004H47.0924V95.0004ZM78.6703 95.0004C85.0868 95.0004 90.5118 92.7424 94.3305 88.7503C98.1455 84.7621 100.285 79.1197 100.285 72.4749H98.2852C98.2852 78.6872 96.291 83.8075 92.8853 87.3678C89.4834 90.9241 84.6009 93.0004 78.6703 93.0004V95.0004ZM100.285 72.4749V42.7181H98.2852V72.4749H100.285ZM100.285 42.7181C100.285 36.0559 98.146 30.4044 94.331 26.4113C90.5121 22.4143 85.0868 20.1562 78.6703 20.1562V22.1562C84.6009 22.1562 89.4831 24.2324 92.8849 27.793C96.2905 31.3575 98.2852 36.487 98.2852 42.7181H100.285Z" fill="url(#paint1_linear_2_1302)"/>
        </g>
        <path d="M38 35C38 34.4696 38.2107 33.9609 38.5858 33.5858C38.9609 33.2107 39.4696 33 40 33V35H38Z" fill="white"/>
        <path d="M40 33H42V35H40V33Z" fill="white"/>
        <path d="M42 33H44V35H42V33Z" fill="white"/>
        <path d="M44 33H46V35H44V33Z" fill="white"/>
        <path d="M46 33H48V35H46V33Z" fill="white"/>
        <path d="M48 33H50V35H48V33Z" fill="white"/>
        <path d="M50 33C50.5304 33 51.0391 33.2107 51.4142 33.5858C51.7893 33.9609 52 34.4696 52 35H50V33Z" fill="white"/>
        <path d="M54 35C54 34.4696 54.2107 33.9609 54.5858 33.5858C54.9609 33.2107 55.4696 33 56 33V35H54Z" fill="white"/>
        <path d="M57 33C57.2652 33 57.5196 33.1054 57.7071 33.2929C57.8946 33.4804 58 33.7348 58 34C58 34.2652 57.8946 34.5196 57.7071 34.7071C57.5196 34.8946 57.2652 35 57 35H56V33H57Z" fill="white"/>
        <path d="M60 35C60 34.4696 60.2107 33.9609 60.5858 33.5858C60.9609 33.2107 61.4696 33 62 33V35H60Z" fill="white"/>
        <path d="M62 33H64V35H62V33Z" fill="white"/>
        <path d="M64 33H66V35H64V33Z" fill="white"/>
        <path d="M66 33H68V35H66V33Z" fill="white"/>
        <path d="M68 33H70V35H68V33Z" fill="white"/>
        <path d="M71 33C71.2652 33 71.5196 33.1054 71.7071 33.2929C71.8946 33.4804 72 33.7348 72 34C72 34.2652 71.8946 34.5196 71.7071 34.7071C71.5196 34.8946 71.2652 35 71 35H70V33H71Z" fill="white"/>
        <path d="M74 35C74 34.4696 74.2107 33.9609 74.5858 33.5858C74.9609 33.2107 75.4696 33 76 33V35H74Z" fill="white"/>
        <path d="M76 33H78V35H76V33Z" fill="white"/>
        <path d="M78 33H80V35H78V33Z" fill="white"/>
        <path d="M80 33H82V35H80V33Z" fill="white"/>
        <path d="M82 33H84V35H82V33Z" fill="white"/>
        <path d="M84 33H86V35H84V33Z" fill="white"/>
        <path d="M86 33C86.5304 33 87.0391 33.2107 87.4142 33.5858C87.7893 33.9609 88 34.4696 88 35H86V33Z" fill="white"/>
        <path d="M38 35H40V37H38V35Z" fill="white"/>
        <path d="M50 35H52V37H50V35Z" fill="white"/>
        <path d="M54 35H56V37H54V35Z" fill="white"/>
        <path d="M60 36C60 36.2652 60.1054 36.5196 60.2929 36.7071C60.4804 36.8946 60.7348 37 61 37C61.2652 37 61.5196 36.8946 61.7071 36.7071C61.8946 36.5196 62 36.2652 62 36V35H60V36Z" fill="white"/>
        <path d="M68 36C68 36.2652 68.1054 36.5196 68.2929 36.7071C68.4804 36.8946 68.7348 37 69 37C69.2652 37 69.5196 36.8946 69.7071 36.7071C69.8946 36.5196 70 36.2652 70 36V35H68V36Z" fill="white"/>
        <path d="M74 35H76V37H74V35Z" fill="white"/>
        <path d="M86 35H88V37H86V35Z" fill="white"/>
        <path d="M38 37H40V39H38V37Z" fill="white"/>
        <path d="M42 39C42 38.4696 42.2107 37.9609 42.5858 37.5858C42.9609 37.2107 43.4696 37 44 37V39H42Z" fill="white"/>
        <path d="M44 37H46V39H44V37Z" fill="white"/>
        <path d="M46 37C46.5304 37 47.0391 37.2107 47.4142 37.5858C47.7893 37.9609 48 38.4696 48 39H46V37Z" fill="white"/>
        <path d="M50 37H52V39H50V37Z" fill="white"/>
        <path d="M54 38C54 38.2652 54.1054 38.5196 54.2929 38.7071C54.4804 38.8946 54.7348 39 55 39C55.2652 39 55.5196 38.8946 55.7071 38.7071C55.8946 38.5196 56 38.2652 56 38V37H54V38Z" fill="white"/>
        <path d="M64 38C64 37.7348 64.1054 37.4804 64.2929 37.2929C64.4804 37.1054 64.7348 37 65 37C65.2652 37 65.5196 37.1054 65.7071 37.2929C65.8946 37.4804 66 37.7348 66 38V39H64V38Z" fill="white"/>
        <path d="M70 38C70 37.7348 70.1054 37.4804 70.2929 37.2929C70.4804 37.1054 70.7348 37 71 37C71.2652 37 71.5196 37.1054 71.7071 37.2929C71.8946 37.4804 72 37.7348 72 38V39H70V38Z" fill="white"/>
        <path d="M74 37H76V39H74V37Z" fill="white"/>
        <path d="M78 39C78 38.4696 78.2107 37.9609 78.5858 37.5858C78.9609 37.2107 79.4696 37 80 37V39H78Z" fill="white"/>
        <path d="M80 37H82V39H80V37Z" fill="white"/>
        <path d="M82 37C82.5304 37 83.0391 37.2107 83.4142 37.5858C83.7893 37.9609 84 38.4696 84 39H82V37Z" fill="white"/>
        <path d="M86 37H88V39H86V37Z" fill="white"/>
        <path d="M38 39H40V41H38V39Z" fill="white"/>
        <path d="M42 39H44V41H42V39Z" fill="white"/>
        <path d="M44 39H46V41H44V39Z" fill="white"/>
        <path d="M46 39H48V41H46V39Z" fill="white"/>
        <path d="M50 39H52V41H50V39Z" fill="white"/>
        <path d="M56 41C56 40.4696 56.2107 39.9609 56.5858 39.5858C56.9609 39.2107 57.4696 39 58 39V41H56Z" fill="white"/>
        <path d="M59 39C59.2652 39 59.5196 39.1054 59.7071 39.2929C59.8946 39.4804 60 39.7348 60 40C60 40.2652 59.8946 40.5196 59.7071 40.7071C59.5196 40.8946 59.2652 41 59 41H58V39H59Z" fill="white"/>
        <path d="M64 39C64 39.5304 64.2107 40.0391 64.5858 40.4142C64.9609 40.7893 65.4696 41 66 41V39H64Z" fill="white"/>
        <path d="M66 39C66.5304 39 67.0391 39.2107 67.4142 39.5858C67.7893 39.9609 68 40.4696 68 41H66V39Z" fill="white"/>
        <path d="M70 40C70 40.2652 70.1054 40.5196 70.2929 40.7071C70.4804 40.8946 70.7348 41 71 41C71.2652 41 71.5196 40.8946 71.7071 40.7071C71.8946 40.5196 72 40.2652 72 40V39H70V40Z" fill="white"/>
        <path d="M74 39H76V41H74V39Z" fill="white"/>
        <path d="M78 39H80V41H78V39Z" fill="white"/>
        <path d="M80 39H82V41H80V39Z" fill="white"/>
        <path d="M82 39H84V41H82V39Z" fill="white"/>
        <path d="M86 39H88V41H86V39Z" fill="white"/>
        <path d="M38 41H40V43H38V41Z" fill="white"/>
        <path d="M42 41C42 41.5304 42.2107 42.0391 42.5858 42.4142C42.9609 42.7893 43.4696 43 44 43V41H42Z" fill="white"/>
        <path d="M44 41H46V43H44V41Z" fill="white"/>
        <path d="M46 43C46.5304 43 47.0391 42.7893 47.4142 42.4142C47.7893 42.0391 48 41.5304 48 41H46V43Z" fill="white"/>
        <path d="M50 41H52V43H50V41Z" fill="white"/>
        <path d="M56 41H58V43H56V41Z" fill="white"/>
        <path d="M66 41C66 41.5304 66.2107 42.0391 66.5858 42.4142C66.9609 42.7893 67.4696 43 68 43V41H66Z" fill="white"/>
        <path d="M68 41C68.5304 41 69.0391 41.2107 69.4142 41.5858C69.7893 41.9609 70 42.4696 70 43H68V41Z" fill="white"/>
        <path d="M74 41H76V43H74V41Z" fill="white"/>
        <path d="M78 41C78 41.5304 78.2107 42.0391 78.5858 42.4142C78.9609 42.7893 79.4696 43 80 43V41H78Z" fill="white"/>
        <path d="M80 41H82V43H80V41Z" fill="white"/>
        <path d="M82 43C82.5304 43 83.0391 42.7893 83.4142 42.4142C83.7893 42.0391 84 41.5304 84 41H82V43Z" fill="white"/>
        <path d="M86 41H88V43H86V41Z" fill="white"/>
        <path d="M38 43H40V45H38V43Z" fill="white"/>
        <path d="M50 43H52V45H50V43Z" fill="white"/>
        <path d="M54 45C54 44.4696 54.2107 43.9609 54.5858 43.5858C54.9609 43.2107 55.4696 43 56 43V45H54Z" fill="white"/>
        <path d="M56 43H58V45H56V43Z" fill="white"/>
        <path d="M58 43H60V45H58V43Z" fill="white"/>
        <path d="M61 43C61.2652 43 61.5196 43.1054 61.7071 43.2929C61.8946 43.4804 62 43.7348 62 44C62 44.2652 61.8946 44.5196 61.7071 44.7071C61.5196 44.8946 61.2652 45 61 45H60V43H61Z" fill="white"/>
        <path d="M68 44C68 44.2652 68.1054 44.5196 68.2929 44.7071C68.4804 44.8946 68.7348 45 69 45C69.2652 45 69.5196 44.8946 69.7071 44.7071C69.8946 44.5196 70 44.2652 70 44V43H68V44Z" fill="white"/>
        <path d="M74 43H76V45H74V43Z" fill="white"/>
        <path d="M86 43H88V45H86V43Z" fill="white"/>
        <path d="M38 45C38 45.5304 38.2107 46.0391 38.5858 46.4142C38.9609 46.7893 39.4696 47 40 47V45H38Z" fill="white"/>
        <path d="M40 45H42V47H40V45Z" fill="white"/>
        <path d="M42 45H44V47H42V45Z" fill="white"/>
        <path d="M44 45H46V47H44V45Z" fill="white"/>
        <path d="M46 45H48V47H46V45Z" fill="white"/>
        <path d="M48 45H50V47H48V45Z" fill="white"/>
        <path d="M50 47C50.5304 47 51.0391 46.7893 51.4142 46.4142C51.7893 46.0391 52 45.5304 52 45H50V47Z" fill="white"/>
        <path d="M54 45H56V47H54V45Z" fill="white"/>
        <path d="M58 45H60V47H58V45Z" fill="white"/>
        <path d="M63 45C63.2652 45 63.5196 45.1054 63.7071 45.2929C63.8946 45.4804 64 45.7348 64 46C64 46.2652 63.8946 46.5196 63.7071 46.7071C63.5196 46.8946 63.2652 47 63 47C62.7348 47 62.4804 46.8946 62.2929 46.7071C62.1054 46.5196 62 46.2652 62 46C62 45.7348 62.1054 45.4804 62.2929 45.2929C62.4804 45.1054 62.7348 45 63 45Z" fill="white"/>
        <path d="M66 46C66 45.7348 66.1054 45.4804 66.2929 45.2929C66.4804 45.1054 66.7348 45 67 45C67.2652 45 67.5196 45.1054 67.7071 45.2929C67.8946 45.4804 68 45.7348 68 46V47H66V46Z" fill="white"/>
        <path d="M70 46C70 45.7348 70.1054 45.4804 70.2929 45.2929C70.4804 45.1054 70.7348 45 71 45C71.2652 45 71.5196 45.1054 71.7071 45.2929C71.8946 45.4804 72 45.7348 72 46V47H70V46Z" fill="white"/>
        <path d="M74 45C74 45.5304 74.2107 46.0391 74.5858 46.4142C74.9609 46.7893 75.4696 47 76 47V45H74Z" fill="white"/>
        <path d="M76 45H78V47H76V45Z" fill="white"/>
        <path d="M78 45H80V47H78V45Z" fill="white"/>
        <path d="M80 45H82V47H80V45Z" fill="white"/>
        <path d="M82 45H84V47H82V45Z" fill="white"/>
        <path d="M84 45H86V47H84V45Z" fill="white"/>
        <path d="M86 47C86.5304 47 87.0391 46.7893 87.4142 46.4142C87.7893 46.0391 88 45.5304 88 45H86V47Z" fill="white"/>
        <path d="M54 47H56V49H54V47Z" fill="white"/>
        <path d="M58 48C58 48.2652 58.1054 48.5196 58.2929 48.7071C58.4804 48.8946 58.7348 49 59 49C59.2652 49 59.5196 48.8946 59.7071 48.7071C59.8946 48.5196 60 48.2652 60 48V47H58V48Z" fill="white"/>
        <path d="M64 49C64 48.4696 64.2107 47.9609 64.5858 47.5858C64.9609 47.2107 65.4696 47 66 47V49H64Z" fill="white"/>
        <path d="M66 47H68V49H66V47Z" fill="white"/>
        <path d="M68 47H70V49H68V47Z" fill="white"/>
        <path d="M70 49C70.5304 49 71.0391 48.7893 71.4142 48.4142C71.7893 48.0391 72 47.5304 72 47H70V49Z" fill="white"/>
        <path d="M42 51C42 50.4696 42.2107 49.9609 42.5858 49.5858C42.9609 49.2107 43.4696 49 44 49V51H42Z" fill="white"/>
        <path d="M44 49H46V51H44V49Z" fill="white"/>
        <path d="M47 49C47.2652 49 47.5196 49.1054 47.7071 49.2929C47.8946 49.4804 48 49.7348 48 50C48 50.2652 47.8946 50.5196 47.7071 50.7071C47.5196 50.8946 47.2652 51 47 51H46V49H47Z" fill="white"/>
        <path d="M51 49C51.2652 49 51.5196 49.1054 51.7071 49.2929C51.8946 49.4804 52 49.7348 52 50C52 50.2652 51.8946 50.5196 51.7071 50.7071C51.5196 50.8946 51.2652 51 51 51C50.7348 51 50.4804 50.8946 50.2929 50.7071C50.1054 50.5196 50 50.2652 50 50C50 49.7348 50.1054 49.4804 50.2929 49.2929C50.4804 49.1054 50.7348 49 51 49Z" fill="white"/>
        <path d="M54 50C54 50.2652 54.1054 50.5196 54.2929 50.7071C54.4804 50.8946 54.7348 51 55 51C55.2652 51 55.5196 50.8946 55.7071 50.7071C55.8946 50.5196 56 50.2652 56 50V49H54V50Z" fill="white"/>
        <path d="M63 49C62.7348 49 62.4804 49.1054 62.2929 49.2929C62.1054 49.4804 62 49.7348 62 50C62 50.2652 62.1054 50.5196 62.2929 50.7071C62.4804 50.8946 62.7348 51 63 51H64V49H63Z" fill="white"/>
        <path d="M64 49H66V51H64V49Z" fill="white"/>
        <path d="M66 51C66.5304 51 67.0391 50.7893 67.4142 50.4142C67.7893 50.0391 68 49.5304 68 49H66V51Z" fill="white"/>
        <path d="M73 49C72.7348 49 72.4804 49.1054 72.2929 49.2929C72.1054 49.4804 72 49.7348 72 50C72 50.2652 72.1054 50.5196 72.2929 50.7071C72.4804 50.8946 72.7348 51 73 51H74V49H73Z" fill="white"/>
        <path d="M74 49H76V51H74V49Z" fill="white"/>
        <path d="M76 49C76.5304 49 77.0391 49.2107 77.4142 49.5858C77.7893 49.9609 78 50.4696 78 51H76V49Z" fill="white"/>
        <path d="M83 49C82.7348 49 82.4804 49.1054 82.2929 49.2929C82.1054 49.4804 82 49.7348 82 50C82 50.2652 82.1054 50.5196 82.2929 50.7071C82.4804 50.8946 82.7348 51 83 51H84V49H83Z" fill="white"/>
        <path d="M84 49H86V51H84V49Z" fill="white"/>
        <path d="M87 49C87.2652 49 87.5196 49.1054 87.7071 49.2929C87.8946 49.4804 88 49.7348 88 50C88 50.2652 87.8946 50.5196 87.7071 50.7071C87.5196 50.8946 87.2652 51 87 51H86V49H87Z" fill="white"/>
        <path d="M39 51C39.2652 51 39.5196 51.1054 39.7071 51.2929C39.8946 51.4804 40 51.7348 40 52C40 52.2652 39.8946 52.5196 39.7071 52.7071C39.5196 52.8946 39.2652 53 39 53C38.7348 53 38.4804 52.8946 38.2929 52.7071C38.1054 52.5196 38 52.2652 38 52C38 51.7348 38.1054 51.4804 38.2929 51.2929C38.4804 51.1054 38.7348 51 39 51Z" fill="white"/>
        <path d="M42 52C42 52.2652 42.1054 52.5196 42.2929 52.7071C42.4804 52.8946 42.7348 53 43 53C43.2652 53 43.5196 52.8946 43.7071 52.7071C43.8946 52.5196 44 52.2652 44 52V51H42V52Z" fill="white"/>
        <path d="M48 52C48 51.7348 48.1054 51.4804 48.2929 51.2929C48.4804 51.1054 48.7348 51 49 51C49.2652 51 49.5196 51.1054 49.7071 51.2929C49.8946 51.4804 50 51.7348 50 52V53H48V52Z" fill="white"/>
        <path d="M76 52C76 52.2652 76.1054 52.5196 76.2929 52.7071C76.4804 52.8946 76.7348 53 77 53C77.2652 53 77.5196 52.8946 77.7071 52.7071C77.8946 52.5196 78 52.2652 78 52V51H76V52Z" fill="white"/>
        <path d="M80 52C80 51.7348 80.1054 51.4804 80.2929 51.2929C80.4804 51.1054 80.7348 51 81 51C81.2652 51 81.5196 51.1054 81.7071 51.2929C81.8946 51.4804 82 51.7348 82 52V53H80V52Z" fill="white"/>
        <path d="M84 51H86V53H84V51Z" fill="white"/>
        <path d="M47 53C46.7348 53 46.4804 53.1054 46.2929 53.2929C46.1054 53.4804 46 53.7348 46 54C46 54.2652 46.1054 54.5196 46.2929 54.7071C46.4804 54.8946 46.7348 55 47 55H48V53H47Z" fill="white"/>
        <path d="M48 53H50V55H48V53Z" fill="white"/>
        <path d="M50 53H52V55H50V53Z" fill="white"/>
        <path d="M53 53C53.2652 53 53.5196 53.1054 53.7071 53.2929C53.8946 53.4804 54 53.7348 54 54C54 54.2652 53.8946 54.5196 53.7071 54.7071C53.5196 54.8946 53.2652 55 53 55H52V53H53Z" fill="white"/>
        <path d="M78 55C78 54.4696 78.2107 53.9609 78.5858 53.5858C78.9609 53.2107 79.4696 53 80 53V55H78Z" fill="white"/>
        <path d="M80 53H82V55H80V53Z" fill="white"/>
        <path d="M82 53H84V55H82V53Z" fill="white"/>
        <path d="M84 53H86V55H84V53Z" fill="white"/>
        <path d="M86 53C86.5304 53 87.0391 53.2107 87.4142 53.5858C87.7893 53.9609 88 54.4696 88 55H86V53Z" fill="white"/>
        <path d="M38 56C38 55.7348 38.1054 55.4804 38.2929 55.2929C38.4804 55.1054 38.7348 55 39 55C39.2652 55 39.5196 55.1054 39.7071 55.2929C39.8946 55.4804 40 55.7348 40 56V57H38V56Z" fill="white"/>
        <path d="M45 55C45.2652 55 45.5196 55.1054 45.7071 55.2929C45.8946 55.4804 46 55.7348 46 56C46 56.2652 45.8946 56.5196 45.7071 56.7071C45.5196 56.8946 45.2652 57 45 57C44.7348 57 44.4804 56.8946 44.2929 56.7071C44.1054 56.5196 44 56.2652 44 56C44 55.7348 44.1054 55.4804 44.2929 55.2929C44.4804 55.1054 44.7348 55 45 55Z" fill="white"/>
        <path d="M71 55C70.7348 55 70.4804 55.1054 70.2929 55.2929C70.1054 55.4804 70 55.7348 70 56C70 56.2652 70.1054 56.5196 70.2929 56.7071C70.4804 56.8946 70.7348 57 71 57H72V55H71Z" fill="white"/>
        <path d="M72 55H74V57H72V55Z" fill="white"/>
        <path d="M74 55H76V57H74V55Z" fill="white"/>
        <path d="M76 55H78V57H76V55Z" fill="white"/>
        <path d="M78 55H80V57H78V55Z" fill="white"/>
        <path d="M86 56C86 56.2652 86.1054 56.5196 86.2929 56.7071C86.4804 56.8946 86.7348 57 87 57C87.2652 57 87.5196 56.8946 87.7071 56.7071C87.8946 56.5196 88 56.2652 88 56V55H86V56Z" fill="white"/>
        <path d="M38 57H40V59H38V57Z" fill="white"/>
        <path d="M41 57C41.2652 57 41.5196 57.1054 41.7071 57.2929C41.8946 57.4804 42 57.7348 42 58C42 58.2652 41.8946 58.5196 41.7071 58.7071C41.5196 58.8946 41.2652 59 41 59H40V57H41Z" fill="white"/>
        <path d="M48 59C48 58.4696 48.2107 57.9609 48.5858 57.5858C48.9609 57.2107 49.4696 57 50 57V59H48Z" fill="white"/>
        <path d="M50 57H52V59H50V57Z" fill="white"/>
        <path d="M52 57C52.5304 57 53.0391 57.2107 53.4142 57.5858C53.7893 57.9609 54 58.4696 54 59H52V57Z" fill="white"/>
        <path d="M72 57C72 57.5304 72.2107 58.0391 72.5858 58.4142C72.9609 58.7893 73.4696 59 74 59V57H72Z" fill="white"/>
        <path d="M74 59C74.5304 59 75.0391 58.7893 75.4142 58.4142C75.7893 58.0391 76 57.5304 76 57H74V59Z" fill="white"/>
        <path d="M78 57C78 57.5304 78.2107 58.0391 78.5858 58.4142C78.9609 58.7893 79.4696 59 80 59V57H78Z" fill="white"/>
        <path d="M80 57H82V59H80V57Z" fill="white"/>
        <path d="M83 57C83.2652 57 83.5196 57.1054 83.7071 57.2929C83.8946 57.4804 84 57.7348 84 58C84 58.2652 83.8946 58.5196 83.7071 58.7071C83.5196 58.8946 83.2652 59 83 59H82V57H83Z" fill="white"/>
        <path d="M38 59H40V61H38V59Z" fill="white"/>
        <path d="M44 60C44 59.7348 44.1054 59.4804 44.2929 59.2929C44.4804 59.1054 44.7348 59 45 59C45.2652 59 45.5196 59.1054 45.7071 59.2929C45.8946 59.4804 46 59.7348 46 60V61H44V60Z" fill="white"/>
        <path d="M48 60C48 60.2652 48.1054 60.5196 48.2929 60.7071C48.4804 60.8946 48.7348 61 49 61C49.2652 61 49.5196 60.8946 49.7071 60.7071C49.8946 60.5196 50 60.2652 50 60V59H48V60Z" fill="white"/>
        <path d="M52 59H54V61H52V59Z" fill="white"/>
        <path d="M54 59C54.5304 59 55.0391 59.2107 55.4142 59.5858C55.7893 59.9609 56 60.4696 56 61H54V59Z" fill="white"/>
        <path d="M71 59C71.2652 59 71.5196 59.1054 71.7071 59.2929C71.8946 59.4804 72 59.7348 72 60C72 60.2652 71.8946 60.5196 71.7071 60.7071C71.5196 60.8946 71.2652 61 71 61C70.7348 61 70.4804 60.8946 70.2929 60.7071C70.1054 60.5196 70 60.2652 70 60C70 59.7348 70.1054 59.4804 70.2929 59.2929C70.4804 59.1054 70.7348 59 71 59Z" fill="white"/>
        <path d="M80 60C80 60.2652 80.1054 60.5196 80.2929 60.7071C80.4804 60.8946 80.7348 61 81 61C81.2652 61 81.5196 60.8946 81.7071 60.7071C81.8946 60.5196 82 60.2652 82 60V59H80V60Z" fill="white"/>
        <path d="M38 61H40V63H38V61Z" fill="white"/>
        <path d="M44 61H46V63H44V61Z" fill="white"/>
        <path d="M46 61C46.5304 61 47.0391 61.2107 47.4142 61.5858C47.7893 61.9609 48 62.4696 48 63H46V61Z" fill="white"/>
        <path d="M51 61C50.7348 61 50.4804 61.1054 50.2929 61.2929C50.1054 61.4804 50 61.7348 50 62C50 62.2652 50.1054 62.5196 50.2929 62.7071C50.4804 62.8946 50.7348 63 51 63H52V61H51Z" fill="white"/>
        <path d="M52 61H54V63H52V61Z" fill="white"/>
        <path d="M54 61H56V63H54V61Z" fill="white"/>
        <path d="M72 62C72 61.7348 72.1054 61.4804 72.2929 61.2929C72.4804 61.1054 72.7348 61 73 61C73.2652 61 73.5196 61.1054 73.7071 61.2929C73.8946 61.4804 74 61.7348 74 62V63H72V62Z" fill="white"/>
        <path d="M79 61C79.2652 61 79.5196 61.1054 79.7071 61.2929C79.8946 61.4804 80 61.7348 80 62C80 62.2652 79.8946 62.5196 79.7071 62.7071C79.5196 62.8946 79.2652 63 79 63C78.7348 63 78.4804 62.8946 78.2929 62.7071C78.1054 62.5196 78 62.2652 78 62C78 61.7348 78.1054 61.4804 78.2929 61.2929C78.4804 61.1054 78.7348 61 79 61Z" fill="white"/>
        <path d="M85 61C84.7348 61 84.4804 61.1054 84.2929 61.2929C84.1054 61.4804 84 61.7348 84 62C84 62.2652 84.1054 62.5196 84.2929 62.7071C84.4804 62.8946 84.7348 63 85 63H86V61H85Z" fill="white"/>
        <path d="M86 61C86.5304 61 87.0391 61.2107 87.4142 61.5858C87.7893 61.9609 88 62.4696 88 63H86V61Z" fill="white"/>
        <path d="M38 63H40V65H38V63Z" fill="white"/>
        <path d="M42 65C42 64.4696 42.2107 63.9609 42.5858 63.5858C42.9609 63.2107 43.4696 63 44 63V65H42Z" fill="white"/>
        <path d="M44 63H46V65H44V63Z" fill="white"/>
        <path d="M46 65C46.5304 65 47.0391 64.7893 47.4142 64.4142C47.7893 64.0391 48 63.5304 48 63H46V65Z" fill="white"/>
        <path d="M52 63H54V65H52V63Z" fill="white"/>
        <path d="M54 65C54.5304 65 55.0391 64.7893 55.4142 64.4142C55.7893 64.0391 56 63.5304 56 63H54V65Z" fill="white"/>
        <path d="M70 65C70 64.4696 70.2107 63.9609 70.5858 63.5858C70.9609 63.2107 71.4696 63 72 63V65H70Z" fill="white"/>
        <path d="M72 63H74V65H72V63Z" fill="white"/>
        <path d="M86 63H88V65H86V63Z" fill="white"/>
        <path d="M38 66C38 66.2652 38.1054 66.5196 38.2929 66.7071C38.4804 66.8946 38.7348 67 39 67C39.2652 67 39.5196 66.8946 39.7071 66.7071C39.8946 66.5196 40 66.2652 40 66V65H38V66Z" fill="white"/>
        <path d="M42 65C42 65.5304 42.2107 66.0391 42.5858 66.4142C42.9609 66.7893 43.4696 67 44 67V65H42Z" fill="white"/>
        <path d="M44 67C44.5304 67 45.0391 66.7893 45.4142 66.4142C45.7893 66.0391 46 65.5304 46 65H44V67Z" fill="white"/>
        <path d="M49 65C48.7348 65 48.4804 65.1054 48.2929 65.2929C48.1054 65.4804 48 65.7348 48 66C48 66.2652 48.1054 66.5196 48.2929 66.7071C48.4804 66.8946 48.7348 67 49 67H50V65H49Z" fill="white"/>
        <path d="M50 65H52V67H50V65Z" fill="white"/>
        <path d="M52 67C52.5304 67 53.0391 66.7893 53.4142 66.4142C53.7893 66.0391 54 65.5304 54 65H52V67Z" fill="white"/>
        <path d="M62 66C62 65.7348 62.1054 65.4804 62.2929 65.2929C62.4804 65.1054 62.7348 65 63 65C63.2652 65 63.5196 65.1054 63.7071 65.2929C63.8946 65.4804 64 65.7348 64 66V67H62V66Z" fill="white"/>
        <path d="M70 65H72V67H70V65Z" fill="white"/>
        <path d="M72 65H74V67H72V65Z" fill="white"/>
        <path d="M74 65H76V67H74V65Z" fill="white"/>
        <path d="M76 65H78V67H76V65Z" fill="white"/>
        <path d="M78 65C78.5304 65 79.0391 65.2107 79.4142 65.5858C79.7893 65.9609 80 66.4696 80 67H78V65Z" fill="white"/>
        <path d="M83 65C83.2652 65 83.5196 65.1054 83.7071 65.2929C83.8946 65.4804 84 65.7348 84 66C84 66.2652 83.8946 66.5196 83.7071 66.7071C83.5196 66.8946 83.2652 67 83 67C82.7348 67 82.4804 66.8946 82.2929 66.7071C82.1054 66.5196 82 66.2652 82 66C82 65.7348 82.1054 65.4804 82.2929 65.2929C82.4804 65.1054 82.7348 65 83 65Z" fill="white"/>
        <path d="M86 66C86 66.2652 86.1054 66.5196 86.2929 66.7071C86.4804 66.8946 86.7348 67 87 67C87.2652 67 87.5196 66.8946 87.7071 66.7071C87.8946 66.5196 88 66.2652 88 66V65H86V66Z" fill="white"/>
        <path d="M55 67C54.7348 67 54.4804 67.1054 54.2929 67.2929C54.1054 67.4804 54 67.7348 54 68C54 68.2652 54.1054 68.5196 54.2929 68.7071C54.4804 68.8946 54.7348 69 55 69H56V67H55Z" fill="white"/>
        <path d="M57 67C57.2652 67 57.5196 67.1054 57.7071 67.2929C57.8946 67.4804 58 67.7348 58 68C58 68.2652 57.8946 68.5196 57.7071 68.7071C57.5196 68.8946 57.2652 69 57 69H56V67H57Z" fill="white"/>
        <path d="M60 69C60 68.4696 60.2107 67.9609 60.5858 67.5858C60.9609 67.2107 61.4696 67 62 67V69H60Z" fill="white"/>
        <path d="M62 67H64V69H62V67Z" fill="white"/>
        <path d="M64 67C64.5304 67 65.0391 67.2107 65.4142 67.5858C65.7893 67.9609 66 68.4696 66 69H64V67Z" fill="white"/>
        <path d="M70 67H72V69H70V67Z" fill="white"/>
        <path d="M78 67H80V69H78V67Z" fill="white"/>
        <path d="M81 67C81.2652 67 81.5196 67.1054 81.7071 67.2929C81.8946 67.4804 82 67.7348 82 68C82 68.2652 81.8946 68.5196 81.7071 68.7071C81.5196 68.8946 81.2652 69 81 69H80V67H81Z" fill="white"/>
        <path d="M84 68C84 67.7348 84.1054 67.4804 84.2929 67.2929C84.4804 67.1054 84.7348 67 85 67C85.2652 67 85.5196 67.1054 85.7071 67.2929C85.8946 67.4804 86 67.7348 86 68V69H84V68Z" fill="white"/>
        <path d="M38 71C38 70.4696 38.2107 69.9609 38.5858 69.5858C38.9609 69.2107 39.4696 69 40 69V71H38Z" fill="white"/>
        <path d="M40 69H42V71H40V69Z" fill="white"/>
        <path d="M42 69H44V71H42V69Z" fill="white"/>
        <path d="M44 69H46V71H44V69Z" fill="white"/>
        <path d="M46 69H48V71H46V69Z" fill="white"/>
        <path d="M48 69H50V71H48V69Z" fill="white"/>
        <path d="M50 69C50.5304 69 51.0391 69.2107 51.4142 69.5858C51.7893 69.9609 52 70.4696 52 71H50V69Z" fill="white"/>
        <path d="M60 69C60 69.5304 60.2107 70.0391 60.5858 70.4142C60.9609 70.7893 61.4696 71 62 71V69H60Z" fill="white"/>
        <path d="M62 69H64V71H62V69Z" fill="white"/>
        <path d="M64 71C64.5304 71 65.0391 70.7893 65.4142 70.4142C65.7893 70.0391 66 69.5304 66 69H64V71Z" fill="white"/>
        <path d="M68 71C68 70.4696 68.2107 69.9609 68.5858 69.5858C68.9609 69.2107 69.4696 69 70 69V71H68Z" fill="white"/>
        <path d="M70 69H72V71H70V69Z" fill="white"/>
        <path d="M75 69C75.2652 69 75.5196 69.1054 75.7071 69.2929C75.8946 69.4804 76 69.7348 76 70C76 70.2652 75.8946 70.5196 75.7071 70.7071C75.5196 70.8946 75.2652 71 75 71C74.7348 71 74.4804 70.8946 74.2929 70.7071C74.1054 70.5196 74 70.2652 74 70C74 69.7348 74.1054 69.4804 74.2929 69.2929C74.4804 69.1054 74.7348 69 75 69Z" fill="white"/>
        <path d="M78 69H80V71H78V69Z" fill="white"/>
        <path d="M83 69C82.7348 69 82.4804 69.1054 82.2929 69.2929C82.1054 69.4804 82 69.7348 82 70C82 70.2652 82.1054 70.5196 82.2929 70.7071C82.4804 70.8946 82.7348 71 83 71H84V69H83Z" fill="white"/>
        <path d="M84 69H86V71H84V69Z" fill="white"/>
        <path d="M87 69C87.2652 69 87.5196 69.1054 87.7071 69.2929C87.8946 69.4804 88 69.7348 88 70C88 70.2652 87.8946 70.5196 87.7071 70.7071C87.5196 70.8946 87.2652 71 87 71H86V69H87Z" fill="white"/>
        <path d="M38 71H40V73H38V71Z" fill="white"/>
        <path d="M50 71H52V73H50V71Z" fill="white"/>
        <path d="M62 72C62 72.2652 62.1054 72.5196 62.2929 72.7071C62.4804 72.8946 62.7348 73 63 73C63.2652 73 63.5196 72.8946 63.7071 72.7071C63.8946 72.5196 64 72.2652 64 72V71H62V72Z" fill="white"/>
        <path d="M68 71H70V73H68V71Z" fill="white"/>
        <path d="M70 71H72V73H70V71Z" fill="white"/>
        <path d="M78 71H80V73H78V71Z" fill="white"/>
        <path d="M84 72C84 72.2652 84.1054 72.5196 84.2929 72.7071C84.4804 72.8946 84.7348 73 85 73C85.2652 73 85.5196 72.8946 85.7071 72.7071C85.8946 72.5196 86 72.2652 86 72V71H84V72Z" fill="white"/>
        <path d="M38 73H40V75H38V73Z" fill="white"/>
        <path d="M42 75C42 74.4696 42.2107 73.9609 42.5858 73.5858C42.9609 73.2107 43.4696 73 44 73V75H42Z" fill="white"/>
        <path d="M44 73H46V75H44V73Z" fill="white"/>
        <path d="M46 73C46.5304 73 47.0391 73.2107 47.4142 73.5858C47.7893 73.9609 48 74.4696 48 75H46V73Z" fill="white"/>
        <path d="M50 73H52V75H50V73Z" fill="white"/>
        <path d="M54 75C54 74.4696 54.2107 73.9609 54.5858 73.5858C54.9609 73.2107 55.4696 73 56 73V75H54Z" fill="white"/>
        <path d="M56 73C56.5304 73 57.0391 73.2107 57.4142 73.5858C57.7893 73.9609 58 74.4696 58 75H56V73Z" fill="white"/>
        <path d="M67 73C66.7348 73 66.4804 73.1054 66.2929 73.2929C66.1054 73.4804 66 73.7348 66 74C66 74.2652 66.1054 74.5196 66.2929 74.7071C66.4804 74.8946 66.7348 75 67 75H68V73H67Z" fill="white"/>
        <path d="M68 73H70V75H68V73Z" fill="white"/>
        <path d="M70 73H72V75H70V73Z" fill="white"/>
        <path d="M72 73H74V75H72V73Z" fill="white"/>
        <path d="M74 73H76V75H74V73Z" fill="white"/>
        <path d="M76 73H78V75H76V73Z" fill="white"/>
        <path d="M78 73H80V75H78V73Z" fill="white"/>
        <path d="M80 73H82V75H80V73Z" fill="white"/>
        <path d="M83 73C83.2652 73 83.5196 73.1054 83.7071 73.2929C83.8946 73.4804 84 73.7348 84 74C84 74.2652 83.8946 74.5196 83.7071 74.7071C83.5196 74.8946 83.2652 75 83 75H82V73H83Z" fill="white"/>
        <path d="M38 75H40V77H38V75Z" fill="white"/>
        <path d="M42 75H44V77H42V75Z" fill="white"/>
        <path d="M44 75H46V77H44V75Z" fill="white"/>
        <path d="M46 75H48V77H46V75Z" fill="white"/>
        <path d="M50 75H52V77H50V75Z" fill="white"/>
        <path d="M54 75H56V77H54V75Z" fill="white"/>
        <path d="M56 75H58V77H56V75Z" fill="white"/>
        <path d="M59 75C59.2652 75 59.5196 75.1054 59.7071 75.2929C59.8946 75.4804 60 75.7348 60 76C60 76.2652 59.8946 76.5196 59.7071 76.7071C59.5196 76.8946 59.2652 77 59 77H58V75H59Z" fill="white"/>
        <path d="M63 75C63.2652 75 63.5196 75.1054 63.7071 75.2929C63.8946 75.4804 64 75.7348 64 76C64 76.2652 63.8946 76.5196 63.7071 76.7071C63.5196 76.8946 63.2652 77 63 77C62.7348 77 62.4804 76.8946 62.2929 76.7071C62.1054 76.5196 62 76.2652 62 76C62 75.7348 62.1054 75.4804 62.2929 75.2929C62.4804 75.1054 62.7348 75 63 75Z" fill="white"/>
        <path d="M74 75H76V77H74V75Z" fill="white"/>
        <path d="M76 75H78V77H76V75Z" fill="white"/>
        <path d="M78 77C78.5304 77 79.0391 76.7893 79.4142 76.4142C79.7893 76.0391 80 75.5304 80 75H78V77Z" fill="white"/>
        <path d="M86 76C86 75.7348 86.1054 75.4804 86.2929 75.2929C86.4804 75.1054 86.7348 75 87 75C87.2652 75 87.5196 75.1054 87.7071 75.2929C87.8946 75.4804 88 75.7348 88 76V77H86V76Z" fill="white"/>
        <path d="M38 77H40V79H38V77Z" fill="white"/>
        <path d="M42 77C42 77.5304 42.2107 78.0391 42.5858 78.4142C42.9609 78.7893 43.4696 79 44 79V77H42Z" fill="white"/>
        <path d="M44 77H46V79H44V77Z" fill="white"/>
        <path d="M46 79C46.5304 79 47.0391 78.7893 47.4142 78.4142C47.7893 78.0391 48 77.5304 48 77H46V79Z" fill="white"/>
        <path d="M50 77H52V79H50V77Z" fill="white"/>
        <path d="M54 77C54 77.5304 54.2107 78.0391 54.5858 78.4142C54.9609 78.7893 55.4696 79 56 79V77H54Z" fill="white"/>
        <path d="M56 77H58V79H56V77Z" fill="white"/>
        <path d="M61 77C61.2652 77 61.5196 77.1054 61.7071 77.2929C61.8946 77.4804 62 77.7348 62 78C62 78.2652 61.8946 78.5196 61.7071 78.7071C61.5196 78.8946 61.2652 79 61 79C60.7348 79 60.4804 78.8946 60.2929 78.7071C60.1054 78.5196 60 78.2652 60 78C60 77.7348 60.1054 77.4804 60.2929 77.2929C60.4804 77.1054 60.7348 77 61 77Z" fill="white"/>
        <path d="M68 78C68 77.7348 68.1054 77.4804 68.2929 77.2929C68.4804 77.1054 68.7348 77 69 77C69.2652 77 69.5196 77.1054 69.7071 77.2929C69.8946 77.4804 70 77.7348 70 78V79H68V78Z" fill="white"/>
        <path d="M74 77C74 77.5304 74.2107 78.0391 74.5858 78.4142C74.9609 78.7893 75.4696 79 76 79V77H74Z" fill="white"/>
        <path d="M76 77H78V79H76V77Z" fill="white"/>
        <path d="M86 77H88V79H86V77Z" fill="white"/>
        <path d="M38 79H40V81H38V79Z" fill="white"/>
        <path d="M50 79H52V81H50V79Z" fill="white"/>
        <path d="M56 79H58V81H56V79Z" fill="white"/>
        <path d="M62 81C62 80.4696 62.2107 79.9609 62.5858 79.5858C62.9609 79.2107 63.4696 79 64 79V81H62Z" fill="white"/>
        <path d="M64 79C64.5304 79 65.0391 79.2107 65.4142 79.5858C65.7893 79.9609 66 80.4696 66 81H64V79Z" fill="white"/>
        <path d="M68 80C68 80.2652 68.1054 80.5196 68.2929 80.7071C68.4804 80.8946 68.7348 81 69 81C69.2652 81 69.5196 80.8946 69.7071 80.7071C69.8946 80.5196 70 80.2652 70 80V79H68V80Z" fill="white"/>
        <path d="M73 79C73.2652 79 73.5196 79.1054 73.7071 79.2929C73.8946 79.4804 74 79.7348 74 80C74 80.2652 73.8946 80.5196 73.7071 80.7071C73.5196 80.8946 73.2652 81 73 81C72.7348 81 72.4804 80.8946 72.2929 80.7071C72.1054 80.5196 72 80.2652 72 80C72 79.7348 72.1054 79.4804 72.2929 79.2929C72.4804 79.1054 72.7348 79 73 79Z" fill="white"/>
        <path d="M76 80C76 80.2652 76.1054 80.5196 76.2929 80.7071C76.4804 80.8946 76.7348 81 77 81C77.2652 81 77.5196 80.8946 77.7071 80.7071C77.8946 80.5196 78 80.2652 78 80V79H76V80Z" fill="white"/>
        <path d="M86 79H88V81H86V79Z" fill="white"/>
        <path d="M38 81C38 81.5304 38.2107 82.0391 38.5858 82.4142C38.9609 82.7893 39.4696 83 40 83V81H38Z" fill="white"/>
        <path d="M40 81H42V83H40V81Z" fill="white"/>
        <path d="M42 81H44V83H42V81Z" fill="white"/>
        <path d="M44 81H46V83H44V81Z" fill="white"/>
        <path d="M46 81H48V83H46V81Z" fill="white"/>
        <path d="M48 81H50V83H48V81Z" fill="white"/>
        <path d="M50 83C50.5304 83 51.0391 82.7893 51.4142 82.4142C51.7893 82.0391 52 81.5304 52 81H50V83Z" fill="white"/>
        <path d="M56 81C56 81.5304 56.2107 82.0391 56.5858 82.4142C56.9609 82.7893 57.4696 83 58 83V81H56Z" fill="white"/>
        <path d="M58 81H60V83H58V81Z" fill="white"/>
        <path d="M60 81H62V83H60V81Z" fill="white"/>
        <path d="M62 81H64V83H62V81Z" fill="white"/>
        <path d="M64 81H66V83H64V81Z" fill="white"/>
        <path d="M67 81C67.2652 81 67.5196 81.1054 67.7071 81.2929C67.8946 81.4804 68 81.7348 68 82C68 82.2652 67.8946 82.5196 67.7071 82.7071C67.5196 82.8946 67.2652 83 67 83H66V81H67Z" fill="white"/>
        <path d="M71 81C71.2652 81 71.5196 81.1054 71.7071 81.2929C71.8946 81.4804 72 81.7348 72 82C72 82.2652 71.8946 82.5196 71.7071 82.7071C71.5196 82.8946 71.2652 83 71 83C70.7348 83 70.4804 82.8946 70.2929 82.7071C70.1054 82.5196 70 82.2652 70 82C70 81.7348 70.1054 81.4804 70.2929 81.2929C70.4804 81.1054 70.7348 81 71 81Z" fill="white"/>
        <path d="M83 81C82.7348 81 82.4804 81.1054 82.2929 81.2929C82.1054 81.4804 82 81.7348 82 82C82 82.2652 82.1054 82.5196 82.2929 82.7071C82.4804 82.8946 82.7348 83 83 83H84V81H83Z" fill="white"/>
        <path d="M84 81H86V83H84V81Z" fill="white"/>
        <path d="M86 83C86.5304 83 87.0391 82.7893 87.4142 82.4142C87.7893 82.0391 88 81.5304 88 81H86V83Z" fill="white"/>
    </g>
    <defs>
        <filter id="filter0_f_2_1302" x="0.850189" y="0.60257" width="89.4375" height="87.902" filterUnits="userSpaceOnUse" color-interpolation-filters="sRGB">
            <feFlood flood-opacity="0" result="BackgroundImageFix"/>
            <feBlend mode="normal" in="SourceGraphic" in2="BackgroundImageFix" result="shape"/>
            <feGaussianBlur stdDeviation="9.5" result="effect1_foregroundBlur_2_1302"/>
        </filter>
        <linearGradient id="paint0_linear_2_1302" x1="7.73199" y1="17.459" x2="91.4726" y2="45.6258" gradientUnits="userSpaceOnUse">
            <stop stop-color="#39AFFD"/>
            <stop offset="1" stop-color="#3A76FF"/>
        </linearGradient>
        <linearGradient id="paint1_linear_2_1302" x1="38.0367" y1="29.6427" x2="84.5035" y2="87.1929" gradientUnits="userSpaceOnUse">
            <stop stop-color="white" stop-opacity="0.25"/>
            <stop offset="1" stop-color="white" stop-opacity="0.06"/>
        </linearGradient>
        <clipPath id="clip0_2_1302">
            <rect width="101" height="95" fill="white"/>
        </clipPath>
    </defs>
</svg>
